<?xml version="1.0" encoding="UTF-8"?>
<svg xmlns="http://www.w3.org/2000/svg" viewBox="0 0 1225.83 284.13">
  <defs>
    <style>
      .cls-1, .cls-2 {
        fill: #f06;
      }

      .cls-3 {
        fill: #fff;
      }

      .cls-4 {
        fill: #5934d5;
      }

      .cls-5 {
        fill: #ff66a3;
      }

      .cls-6 {
        isolation: isolate;
      }

      .cls-2 {
        mix-blend-mode: multiply;
        opacity: .5;
      }
    </style>
  </defs>
  <g class="cls-6">
    <g id="Layer_1" data-name="Layer 1">
      <g>
        <g>
          <path class="cls-3" d="M367.38,179.2c4.43,3.1,10.12,4.66,17.07,4.66s11.89-1.07,15.74-3.21c3.84-2.14,5.76-5.21,5.76-9.2,0-2.95-.89-5.17-2.66-6.65s-4.28-2.55-7.54-3.22c-3.25-.66-8.57-1.44-15.96-2.33-10.05-1.33-18.4-3.03-25.05-5.1s-11.97-5.32-15.96-9.75c-3.99-4.43-5.98-10.34-5.98-17.73s2.03-13.93,6.1-19.62c4.06-5.69,9.79-10.08,17.18-13.19,7.39-3.11,15.88-4.66,25.49-4.66,15.52,.15,28.04,3.47,37.57,9.97,9.53,6.5,14.67,15.52,15.41,27.04h-29.7c-.44-4.28-2.7-7.8-6.76-10.53-4.06-2.73-9.27-4.1-15.63-4.1-5.91,0-10.68,1.11-14.3,3.33-3.62,2.22-5.43,5.17-5.43,8.86,0,2.66,.96,4.66,2.88,5.98,1.92,1.33,4.43,2.29,7.54,2.88,3.1,.59,8.27,1.26,15.52,2,15.37,1.77,27.15,5.06,35.35,9.86,8.2,4.8,12.3,13.04,12.3,24.72,0,7.39-2.18,13.89-6.54,19.5-4.36,5.62-10.42,9.94-18.17,12.97-7.76,3.03-16.73,4.54-26.93,4.54-15.81,0-28.67-3.51-38.57-10.53-9.9-7.02-15.15-16.59-15.74-28.7h29.7c.44,5.02,2.88,9.09,7.31,12.19Z"/>
          <path class="cls-3" d="M477.2,96.86c8.65-4.8,18.66-7.2,30.03-7.2s21.69,2.25,30.48,6.76c8.79,4.5,15.66,10.86,20.61,19.06,4.95,8.2,7.5,17.84,7.65,28.92,0,3.99-.3,7.54-.89,10.64h-82.67v.89c.74,8.28,3.4,14.78,7.98,19.5,4.58,4.73,10.86,7.09,18.84,7.09,6.35,0,11.64-1.37,15.85-4.1,4.21-2.73,6.98-6.76,8.31-12.08h30.81c-1.18,7.54-4.06,14.33-8.64,20.39-4.58,6.06-10.64,10.82-18.18,14.3-7.54,3.47-16.18,5.21-25.93,5.21-12.71,0-23.68-2.36-32.92-7.09-9.23-4.73-16.33-11.49-21.28-20.28-4.95-8.79-7.42-19.02-7.42-30.7s2.4-22.13,7.2-30.92c4.8-8.79,11.53-15.59,20.17-20.39Zm48.98,21.72c-4.65-3.77-10.53-5.65-17.62-5.65s-12.52,1.96-17.18,5.87c-4.65,3.91-7.42,9.2-8.31,15.85h51.64c-1.03-6.95-3.88-12.3-8.53-16.07Z"/>
          <path class="cls-3" d="M586.02,178.53c-4.95-8.87-7.42-19.06-7.42-30.59s2.48-21.72,7.42-30.59c4.95-8.86,11.97-15.7,21.06-20.5,9.09-4.8,19.62-7.2,31.59-7.2s22.5,2.4,31.59,7.2c9.09,4.8,16.11,11.64,21.06,20.5,4.95,8.87,7.43,19.06,7.43,30.59s-2.48,21.91-7.43,30.7c-4.95,8.79-11.97,15.59-21.06,20.39-9.09,4.8-19.62,7.2-31.59,7.2s-22.5-2.4-31.59-7.2c-9.09-4.8-16.11-11.64-21.06-20.5Zm81.01-30.59c0-9.75-2.55-17.66-7.65-23.72-5.1-6.06-12.01-9.09-20.73-9.09s-15.4,3.03-20.5,9.09c-5.1,6.06-7.65,13.97-7.65,23.72s2.55,17.66,7.65,23.72c5.1,6.06,11.93,9.09,20.5,9.09s15.63-3.03,20.73-9.09c5.1-6.06,7.65-13.97,7.65-23.72Z"/>
          <path class="cls-3" d="M829.94,204.91h-27.26l-3.1-15.74c-8.72,11.38-20.54,17.07-35.46,17.07-10.05,0-19.06-2.4-27.04-7.2-7.98-4.8-14.22-11.64-18.73-20.5-4.51-8.87-6.76-19.14-6.76-30.81s2.25-21.69,6.76-30.48c4.51-8.79,10.79-15.59,18.84-20.39,8.05-4.8,17.1-7.2,27.15-7.2,14.78,0,26.23,5.17,34.36,15.52V49.75h31.25V204.91Zm-30.81-56.74c0-9.9-2.51-17.88-7.53-23.94-5.03-6.06-11.75-9.09-20.17-9.09s-15.19,3.03-20.28,9.09c-5.1,6.06-7.65,13.97-7.65,23.72s2.55,17.66,7.65,23.72c5.09,6.06,11.86,9.09,20.28,9.09s15.14-2.99,20.17-8.98c5.02-5.98,7.53-13.85,7.53-23.61Z"/>
          <path class="cls-3" d="M885.35,61.06c0,5.03-1.7,9.24-5.1,12.64s-7.69,5.1-12.86,5.1-9.5-1.7-12.97-5.1c-3.47-3.4-5.21-7.61-5.21-12.64s1.73-9.2,5.21-12.52c3.47-3.33,7.8-4.99,12.97-4.99s9.46,1.66,12.86,4.99,5.1,7.5,5.1,12.52Zm-2.44,29.92v113.93h-31.25V90.98h31.25Z"/>
          <path class="cls-3" d="M1011.91,204.91h-27.71l-2.88-13.74c-3.99,4.73-8.64,8.42-13.97,11.08-5.32,2.66-11.82,3.99-19.5,3.99-13.3,0-24.16-4.1-32.58-12.3-8.42-8.2-12.63-21.91-12.63-41.11v-61.84h31.25v58.07c0,10.34,1.81,18.14,5.43,23.38,3.62,5.25,9.2,7.87,16.73,7.87s13.89-2.92,18.17-8.76c4.28-5.84,6.43-14,6.43-24.49v-56.08h31.25v113.93Z"/>
          <path class="cls-3" d="M1212.04,142.41v62.73h-31.25v-63.84c0-17.29-6.58-25.93-19.73-25.93-6.8,0-12.27,2.4-16.4,7.2-4.14,4.8-6.21,11.49-6.21,20.06v62.51h-31.25v-63.84c0-17.29-6.65-25.93-19.95-25.93-6.8,0-12.23,2.47-16.29,7.42s-6.09,11.64-6.09,20.06v62.28h-31.25V90.98h27.26l2.88,14.19c3.84-4.88,8.42-8.64,13.74-11.3,5.32-2.66,11.97-4.06,19.95-4.21,16.25,0,27.56,6.43,33.91,19.28,4.14-6.21,9.57-10.97,16.29-14.3,6.72-3.32,14.37-4.99,22.94-4.99,12.27,0,22.24,4.06,29.92,12.19,7.68,8.13,11.52,21.65,11.52,40.56Z"/>
        </g>
        <g>
          <path class="cls-5" d="M93.19,234.62c-7.28-7.34-15.47-15.77-23.65-24.4l41.68-43.58c-19.6,21.15-26.43,33.65-18.03,67.98Z"/>
          <path class="cls-1" d="M176.18,49.51c20.87,21.03,49.31,51.28,63.75,68.58,20.44,24.49,21.02,56.95,.71,81.52-17.34,20.98-37.02,40.19-57.08,58.66-6.56,6.04-17.49,10.06-26.52,10.25H13.79L145.91,130.36c28.76-30.14,40.2-40.14,30.27-80.85Z"/>
          <path class="cls-4" d="M199.82,73.91c-8.18-8.62-16.37-17.08-23.65-24.4,8.42,34.42,1.53,46.89-18.18,68.13l-34.55,36.12c-4.5,4.72-8.59,8.96-12.23,12.88-11.33,12.21-18.39,21.54-20.7,33.88-.62,3.25-.91,6.7-.84,10.49,.09,6.66,1.25,14.35,3.51,23.61-7.28-7.34-15.47-15.77-23.65-24.4-15.34-16.13-30.7-32.91-40.11-44.18-20.44-24.51-21.02-56.97-.71-81.53,17.34-20.98,37.01-40.19,57.08-58.66,6.55-6.05,17.49-10.06,26.52-10.25H255.57l-55.75,58.31Z"/>
          <path class="cls-5" d="M89.68,211c.09,6.66,1.25,14.35,3.51,23.61-2.52-8.14-3.6-16-3.51-23.61Z"/>
          <path class="cls-2" d="M157.99,117.64l-34.55,36.12c-4.5,4.72-8.59,8.96-12.23,12.88-11.33,12.21-18.39,21.54-20.7,33.88,3.56-53.29,99.65-92.9,85.65-151,8.42,34.42,1.53,46.89-18.18,68.13Z"/>
        </g>
      </g>
    </g>
  </g>
</svg>